<mxfile host="app.diagrams.net" modified="2022-08-31T20:18:20.728Z" agent="5.0 (Windows NT 10.0; Win64; x64) AppleWebKit/537.36 (KHTML, like Gecko) Chrome/104.0.5112.102 Safari/537.36 Edg/104.0.1293.70" etag="hOUwqNx0v5XWTIzO-6Si" version="20.2.7" type="github">
  <diagram id="AxCxbLC-Ea25Rph6K4ID" name="Page-1">
    <mxGraphModel dx="1837" dy="1032" grid="1" gridSize="10" guides="1" tooltips="1" connect="1" arrows="1" fold="1" page="1" pageScale="1" pageWidth="827" pageHeight="1169" math="0" shadow="0">
      <root>
        <mxCell id="0" />
        <mxCell id="1" parent="0" />
        <mxCell id="DNy3k772g0ASiSFVBkv8-5" style="edgeStyle=orthogonalEdgeStyle;rounded=0;orthogonalLoop=1;jettySize=auto;html=1;" parent="1" source="DNy3k772g0ASiSFVBkv8-1" target="DNy3k772g0ASiSFVBkv8-2" edge="1">
          <mxGeometry relative="1" as="geometry" />
        </mxCell>
        <mxCell id="DNy3k772g0ASiSFVBkv8-1" value="&lt;font style=&quot;font-size: 14px;&quot;&gt;Refinamiento y recolección de requerimientos&lt;/font&gt;" style="rounded=1;whiteSpace=wrap;html=1;" parent="1" vertex="1">
          <mxGeometry x="-610" y="330" width="120" height="60" as="geometry" />
        </mxCell>
        <mxCell id="DNy3k772g0ASiSFVBkv8-7" value="" style="edgeStyle=orthogonalEdgeStyle;rounded=0;orthogonalLoop=1;jettySize=auto;html=1;" parent="1" source="DNy3k772g0ASiSFVBkv8-2" target="DNy3k772g0ASiSFVBkv8-6" edge="1">
          <mxGeometry relative="1" as="geometry" />
        </mxCell>
        <mxCell id="DNy3k772g0ASiSFVBkv8-2" value="&lt;font style=&quot;font-size: 14px;&quot;&gt;Diseño rápido&lt;/font&gt;" style="rounded=1;whiteSpace=wrap;html=1;" parent="1" vertex="1">
          <mxGeometry x="-450" y="330" width="120" height="60" as="geometry" />
        </mxCell>
        <mxCell id="DNy3k772g0ASiSFVBkv8-9" value="" style="edgeStyle=orthogonalEdgeStyle;rounded=0;orthogonalLoop=1;jettySize=auto;html=1;" parent="1" source="DNy3k772g0ASiSFVBkv8-6" target="DNy3k772g0ASiSFVBkv8-8" edge="1">
          <mxGeometry relative="1" as="geometry" />
        </mxCell>
        <mxCell id="DNy3k772g0ASiSFVBkv8-6" value="&lt;font style=&quot;font-size: 14px;&quot;&gt;Construcción del prototipo&lt;/font&gt;" style="rounded=1;whiteSpace=wrap;html=1;" parent="1" vertex="1">
          <mxGeometry x="-290" y="330" width="120" height="60" as="geometry" />
        </mxCell>
        <mxCell id="DNy3k772g0ASiSFVBkv8-11" value="" style="edgeStyle=orthogonalEdgeStyle;rounded=0;orthogonalLoop=1;jettySize=auto;html=1;" parent="1" source="DNy3k772g0ASiSFVBkv8-8" target="DNy3k772g0ASiSFVBkv8-10" edge="1">
          <mxGeometry relative="1" as="geometry" />
        </mxCell>
        <mxCell id="DNy3k772g0ASiSFVBkv8-8" value="&lt;font style=&quot;font-size: 14px;&quot;&gt;Evaluación del prototipo por el cliente&lt;/font&gt;" style="rounded=1;whiteSpace=wrap;html=1;" parent="1" vertex="1">
          <mxGeometry x="-120" y="330" width="120" height="60" as="geometry" />
        </mxCell>
        <mxCell id="DNy3k772g0ASiSFVBkv8-12" style="edgeStyle=orthogonalEdgeStyle;rounded=0;orthogonalLoop=1;jettySize=auto;html=1;entryX=0.5;entryY=1;entryDx=0;entryDy=0;" parent="1" source="DNy3k772g0ASiSFVBkv8-10" target="DNy3k772g0ASiSFVBkv8-2" edge="1">
          <mxGeometry relative="1" as="geometry">
            <Array as="points">
              <mxPoint x="100" y="440" />
              <mxPoint x="-390" y="440" />
            </Array>
          </mxGeometry>
        </mxCell>
        <mxCell id="DNy3k772g0ASiSFVBkv8-14" value="" style="edgeStyle=orthogonalEdgeStyle;rounded=0;orthogonalLoop=1;jettySize=auto;html=1;" parent="1" source="DNy3k772g0ASiSFVBkv8-10" target="DNy3k772g0ASiSFVBkv8-13" edge="1">
          <mxGeometry relative="1" as="geometry" />
        </mxCell>
        <mxCell id="DNy3k772g0ASiSFVBkv8-10" value="&lt;font style=&quot;font-size: 14px;&quot;&gt;Refinamiento del prototipo&lt;/font&gt;" style="rounded=1;whiteSpace=wrap;html=1;" parent="1" vertex="1">
          <mxGeometry x="40" y="330" width="120" height="60" as="geometry" />
        </mxCell>
        <mxCell id="DNy3k772g0ASiSFVBkv8-13" value="&lt;font style=&quot;font-size: 14px;&quot;&gt;Producto de ingeniería&lt;/font&gt;" style="rounded=1;whiteSpace=wrap;html=1;" parent="1" vertex="1">
          <mxGeometry x="200" y="330" width="120" height="60" as="geometry" />
        </mxCell>
        <mxCell id="DNy3k772g0ASiSFVBkv8-15" value="&lt;font style=&quot;font-size: 14px;&quot;&gt;Siguiente&lt;br&gt;Incremento&lt;/font&gt;" style="text;html=1;strokeColor=none;fillColor=none;align=center;verticalAlign=middle;whiteSpace=wrap;rounded=0;" parent="1" vertex="1">
          <mxGeometry x="-170" y="445" width="60" height="30" as="geometry" />
        </mxCell>
        <mxCell id="DNy3k772g0ASiSFVBkv8-29" style="edgeStyle=none;shape=link;rounded=0;orthogonalLoop=1;jettySize=auto;html=1;exitX=0.5;exitY=1;exitDx=0;exitDy=0;entryX=0.5;entryY=0;entryDx=0;entryDy=0;" parent="1" source="DNy3k772g0ASiSFVBkv8-17" target="DNy3k772g0ASiSFVBkv8-18" edge="1">
          <mxGeometry relative="1" as="geometry" />
        </mxCell>
        <mxCell id="DNy3k772g0ASiSFVBkv8-17" value="Requisitos del sistema" style="rounded=1;whiteSpace=wrap;html=1;" parent="1" vertex="1">
          <mxGeometry x="440" y="140" width="120" height="60" as="geometry" />
        </mxCell>
        <mxCell id="DNy3k772g0ASiSFVBkv8-30" style="edgeStyle=none;shape=link;rounded=0;orthogonalLoop=1;jettySize=auto;html=1;exitX=0.5;exitY=1;exitDx=0;exitDy=0;entryX=0.5;entryY=0;entryDx=0;entryDy=0;" parent="1" source="DNy3k772g0ASiSFVBkv8-18" target="DNy3k772g0ASiSFVBkv8-19" edge="1">
          <mxGeometry relative="1" as="geometry" />
        </mxCell>
        <mxCell id="DNy3k772g0ASiSFVBkv8-18" value="Análisis del sistema" style="rounded=1;whiteSpace=wrap;html=1;" parent="1" vertex="1">
          <mxGeometry x="480" y="220" width="120" height="60" as="geometry" />
        </mxCell>
        <mxCell id="DNy3k772g0ASiSFVBkv8-31" style="edgeStyle=none;shape=link;rounded=0;orthogonalLoop=1;jettySize=auto;html=1;exitX=0.5;exitY=1;exitDx=0;exitDy=0;entryX=0.5;entryY=0;entryDx=0;entryDy=0;" parent="1" source="DNy3k772g0ASiSFVBkv8-19" target="DNy3k772g0ASiSFVBkv8-20" edge="1">
          <mxGeometry relative="1" as="geometry" />
        </mxCell>
        <mxCell id="DNy3k772g0ASiSFVBkv8-19" value="Diseño de software" style="rounded=1;whiteSpace=wrap;html=1;" parent="1" vertex="1">
          <mxGeometry x="520" y="300" width="120" height="60" as="geometry" />
        </mxCell>
        <mxCell id="DNy3k772g0ASiSFVBkv8-32" style="edgeStyle=none;shape=link;rounded=0;orthogonalLoop=1;jettySize=auto;html=1;exitX=0.5;exitY=1;exitDx=0;exitDy=0;entryX=0.5;entryY=0;entryDx=0;entryDy=0;" parent="1" source="DNy3k772g0ASiSFVBkv8-20" target="DNy3k772g0ASiSFVBkv8-21" edge="1">
          <mxGeometry relative="1" as="geometry" />
        </mxCell>
        <mxCell id="DNy3k772g0ASiSFVBkv8-20" value="Diseño de módulos" style="rounded=1;whiteSpace=wrap;html=1;" parent="1" vertex="1">
          <mxGeometry x="560" y="380" width="120" height="60" as="geometry" />
        </mxCell>
        <mxCell id="DNy3k772g0ASiSFVBkv8-33" style="edgeStyle=none;shape=link;rounded=0;orthogonalLoop=1;jettySize=auto;html=1;exitX=0.5;exitY=0;exitDx=0;exitDy=0;entryX=0.5;entryY=1;entryDx=0;entryDy=0;" parent="1" source="DNy3k772g0ASiSFVBkv8-21" target="DNy3k772g0ASiSFVBkv8-22" edge="1">
          <mxGeometry relative="1" as="geometry" />
        </mxCell>
        <mxCell id="DNy3k772g0ASiSFVBkv8-21" value="Codificación" style="rounded=1;whiteSpace=wrap;html=1;" parent="1" vertex="1">
          <mxGeometry x="640" y="460" width="120" height="60" as="geometry" />
        </mxCell>
        <mxCell id="DNy3k772g0ASiSFVBkv8-34" style="edgeStyle=none;shape=link;rounded=0;orthogonalLoop=1;jettySize=auto;html=1;exitX=0.5;exitY=0;exitDx=0;exitDy=0;entryX=0.5;entryY=1;entryDx=0;entryDy=0;" parent="1" source="DNy3k772g0ASiSFVBkv8-22" target="DNy3k772g0ASiSFVBkv8-23" edge="1">
          <mxGeometry relative="1" as="geometry" />
        </mxCell>
        <mxCell id="DNy3k772g0ASiSFVBkv8-22" value="Prueba unitaria" style="rounded=1;whiteSpace=wrap;html=1;" parent="1" vertex="1">
          <mxGeometry x="730" y="380" width="120" height="60" as="geometry" />
        </mxCell>
        <mxCell id="DNy3k772g0ASiSFVBkv8-35" style="edgeStyle=none;shape=link;rounded=0;orthogonalLoop=1;jettySize=auto;html=1;exitX=0.5;exitY=0;exitDx=0;exitDy=0;entryX=0.5;entryY=1;entryDx=0;entryDy=0;" parent="1" source="DNy3k772g0ASiSFVBkv8-23" target="DNy3k772g0ASiSFVBkv8-24" edge="1">
          <mxGeometry relative="1" as="geometry" />
        </mxCell>
        <mxCell id="DNy3k772g0ASiSFVBkv8-23" value="Pruebas de integración" style="rounded=1;whiteSpace=wrap;html=1;" parent="1" vertex="1">
          <mxGeometry x="770" y="300" width="120" height="60" as="geometry" />
        </mxCell>
        <mxCell id="DNy3k772g0ASiSFVBkv8-36" style="edgeStyle=none;shape=link;rounded=0;orthogonalLoop=1;jettySize=auto;html=1;exitX=0.5;exitY=0;exitDx=0;exitDy=0;entryX=0.5;entryY=1;entryDx=0;entryDy=0;" parent="1" source="DNy3k772g0ASiSFVBkv8-24" target="DNy3k772g0ASiSFVBkv8-25" edge="1">
          <mxGeometry relative="1" as="geometry" />
        </mxCell>
        <mxCell id="DNy3k772g0ASiSFVBkv8-24" value="Pruebas de sistema" style="rounded=1;whiteSpace=wrap;html=1;" parent="1" vertex="1">
          <mxGeometry x="810" y="220" width="120" height="60" as="geometry" />
        </mxCell>
        <mxCell id="DNy3k772g0ASiSFVBkv8-25" value="Pruebas de validación" style="rounded=1;whiteSpace=wrap;html=1;" parent="1" vertex="1">
          <mxGeometry x="850" y="140" width="120" height="60" as="geometry" />
        </mxCell>
        <mxCell id="DNy3k772g0ASiSFVBkv8-40" value="" style="shape=flexArrow;endArrow=classic;startArrow=classic;html=1;rounded=0;entryX=0;entryY=0.5;entryDx=0;entryDy=0;exitX=1;exitY=0.5;exitDx=0;exitDy=0;" parent="1" source="DNy3k772g0ASiSFVBkv8-17" target="DNy3k772g0ASiSFVBkv8-25" edge="1">
          <mxGeometry width="100" height="100" relative="1" as="geometry">
            <mxPoint x="630" y="210" as="sourcePoint" />
            <mxPoint x="730" y="110" as="targetPoint" />
          </mxGeometry>
        </mxCell>
        <mxCell id="DNy3k772g0ASiSFVBkv8-41" value="" style="shape=flexArrow;endArrow=classic;startArrow=classic;html=1;rounded=0;exitX=1;exitY=0.5;exitDx=0;exitDy=0;" parent="1" source="DNy3k772g0ASiSFVBkv8-18" target="DNy3k772g0ASiSFVBkv8-24" edge="1">
          <mxGeometry width="100" height="100" relative="1" as="geometry">
            <mxPoint x="650" y="249.5" as="sourcePoint" />
            <mxPoint x="800" y="250" as="targetPoint" />
          </mxGeometry>
        </mxCell>
        <mxCell id="DNy3k772g0ASiSFVBkv8-42" value="" style="shape=flexArrow;endArrow=classic;startArrow=classic;html=1;rounded=0;exitX=1;exitY=0.5;exitDx=0;exitDy=0;" parent="1" target="DNy3k772g0ASiSFVBkv8-23" edge="1">
          <mxGeometry width="100" height="100" relative="1" as="geometry">
            <mxPoint x="640" y="329.5" as="sourcePoint" />
            <mxPoint x="760" y="330" as="targetPoint" />
          </mxGeometry>
        </mxCell>
        <mxCell id="DNy3k772g0ASiSFVBkv8-43" value="" style="shape=flexArrow;endArrow=classic;startArrow=classic;html=1;rounded=0;exitX=1;exitY=0.5;exitDx=0;exitDy=0;" parent="1" target="DNy3k772g0ASiSFVBkv8-22" edge="1">
          <mxGeometry width="100" height="100" relative="1" as="geometry">
            <mxPoint x="680" y="409.5" as="sourcePoint" />
            <mxPoint x="730" y="410" as="targetPoint" />
          </mxGeometry>
        </mxCell>
        <mxCell id="DNy3k772g0ASiSFVBkv8-44" value="" style="shape=flexArrow;endArrow=classic;html=1;rounded=0;" parent="1" edge="1">
          <mxGeometry width="50" height="50" relative="1" as="geometry">
            <mxPoint x="400" y="190" as="sourcePoint" />
            <mxPoint x="560" y="510" as="targetPoint" />
          </mxGeometry>
        </mxCell>
        <mxCell id="DNy3k772g0ASiSFVBkv8-45" value="" style="shape=flexArrow;endArrow=classic;html=1;rounded=0;" parent="1" edge="1">
          <mxGeometry width="50" height="50" relative="1" as="geometry">
            <mxPoint x="820" y="510" as="sourcePoint" />
            <mxPoint x="1010" y="180" as="targetPoint" />
          </mxGeometry>
        </mxCell>
        <mxCell id="DNy3k772g0ASiSFVBkv8-46" value="Verificación" style="text;html=1;strokeColor=none;fillColor=none;align=center;verticalAlign=middle;whiteSpace=wrap;rounded=0;" parent="1" vertex="1">
          <mxGeometry x="414" y="350" width="60" height="30" as="geometry" />
        </mxCell>
        <mxCell id="DNy3k772g0ASiSFVBkv8-47" value="Validación" style="text;html=1;strokeColor=none;fillColor=none;align=center;verticalAlign=middle;whiteSpace=wrap;rounded=0;" parent="1" vertex="1">
          <mxGeometry x="930" y="350" width="60" height="30" as="geometry" />
        </mxCell>
        <mxCell id="hIoY1X2tBjPMkqKbFY_H-1" value="" style="rounded=0;whiteSpace=wrap;html=1;" parent="1" vertex="1">
          <mxGeometry x="1241" y="160" width="279" height="60" as="geometry" />
        </mxCell>
        <mxCell id="hIoY1X2tBjPMkqKbFY_H-2" value="Desarrollo del concepto" style="rounded=0;whiteSpace=wrap;html=1;" parent="1" vertex="1">
          <mxGeometry x="1295.5" y="175" width="170" height="30" as="geometry" />
        </mxCell>
        <mxCell id="hIoY1X2tBjPMkqKbFY_H-3" value="&lt;b&gt;Fase 1:&lt;br&gt;Concepto&lt;br&gt;&lt;/b&gt;" style="text;html=1;strokeColor=none;fillColor=none;align=left;verticalAlign=middle;whiteSpace=wrap;rounded=0;" parent="1" vertex="1">
          <mxGeometry x="1160" y="170" width="60" height="30" as="geometry" />
        </mxCell>
        <mxCell id="hIoY1X2tBjPMkqKbFY_H-4" value="" style="rounded=0;whiteSpace=wrap;html=1;" parent="1" vertex="1">
          <mxGeometry x="1241" y="230" width="279" height="60" as="geometry" />
        </mxCell>
        <mxCell id="hIoY1X2tBjPMkqKbFY_H-32" style="edgeStyle=orthogonalEdgeStyle;rounded=0;orthogonalLoop=1;jettySize=auto;html=1;exitX=1;exitY=0.25;exitDx=0;exitDy=0;entryX=0;entryY=0.25;entryDx=0;entryDy=0;" parent="1" source="hIoY1X2tBjPMkqKbFY_H-5" target="hIoY1X2tBjPMkqKbFY_H-7" edge="1">
          <mxGeometry relative="1" as="geometry" />
        </mxCell>
        <mxCell id="hIoY1X2tBjPMkqKbFY_H-5" value="Planificación administrativa" style="rounded=0;whiteSpace=wrap;html=1;" parent="1" vertex="1">
          <mxGeometry x="1260" y="245" width="104.5" height="30" as="geometry" />
        </mxCell>
        <mxCell id="hIoY1X2tBjPMkqKbFY_H-6" value="&lt;b&gt;Fase 2:&lt;br&gt;Planificación&lt;br&gt;&lt;/b&gt;" style="text;html=1;strokeColor=none;fillColor=none;align=left;verticalAlign=middle;whiteSpace=wrap;rounded=0;" parent="1" vertex="1">
          <mxGeometry x="1160" y="240" width="80" height="30" as="geometry" />
        </mxCell>
        <mxCell id="hIoY1X2tBjPMkqKbFY_H-33" style="edgeStyle=orthogonalEdgeStyle;rounded=0;orthogonalLoop=1;jettySize=auto;html=1;entryX=1;entryY=0.75;entryDx=0;entryDy=0;exitX=0;exitY=0.75;exitDx=0;exitDy=0;" parent="1" source="hIoY1X2tBjPMkqKbFY_H-7" target="hIoY1X2tBjPMkqKbFY_H-5" edge="1">
          <mxGeometry relative="1" as="geometry" />
        </mxCell>
        <mxCell id="hIoY1X2tBjPMkqKbFY_H-7" value="Especificación del videojuego" style="rounded=0;whiteSpace=wrap;html=1;" parent="1" vertex="1">
          <mxGeometry x="1400" y="245" width="104.5" height="30" as="geometry" />
        </mxCell>
        <mxCell id="hIoY1X2tBjPMkqKbFY_H-8" value="" style="rounded=0;whiteSpace=wrap;html=1;" parent="1" vertex="1">
          <mxGeometry x="1241" y="300" width="279" height="110" as="geometry" />
        </mxCell>
        <mxCell id="hIoY1X2tBjPMkqKbFY_H-17" style="edgeStyle=orthogonalEdgeStyle;rounded=0;orthogonalLoop=1;jettySize=auto;html=1;" parent="1" source="hIoY1X2tBjPMkqKbFY_H-9" target="hIoY1X2tBjPMkqKbFY_H-15" edge="1">
          <mxGeometry relative="1" as="geometry">
            <mxPoint x="1320" y="320" as="targetPoint" />
            <Array as="points">
              <mxPoint x="1290" y="320" />
            </Array>
          </mxGeometry>
        </mxCell>
        <mxCell id="hIoY1X2tBjPMkqKbFY_H-9" value="Planificación de la iteración" style="rounded=0;whiteSpace=wrap;html=1;" parent="1" vertex="1">
          <mxGeometry x="1250" y="340" width="80" height="30" as="geometry" />
        </mxCell>
        <mxCell id="hIoY1X2tBjPMkqKbFY_H-10" value="&lt;b&gt;Fase 3:&lt;br&gt;Elaboración&lt;br&gt;&lt;/b&gt;" style="text;html=1;strokeColor=none;fillColor=none;align=left;verticalAlign=middle;whiteSpace=wrap;rounded=0;" parent="1" vertex="1">
          <mxGeometry x="1160" y="310" width="80" height="30" as="geometry" />
        </mxCell>
        <mxCell id="hIoY1X2tBjPMkqKbFY_H-19" style="edgeStyle=orthogonalEdgeStyle;rounded=0;orthogonalLoop=1;jettySize=auto;html=1;entryX=0.5;entryY=1;entryDx=0;entryDy=0;" parent="1" source="hIoY1X2tBjPMkqKbFY_H-11" target="hIoY1X2tBjPMkqKbFY_H-9" edge="1">
          <mxGeometry relative="1" as="geometry">
            <Array as="points">
              <mxPoint x="1470" y="400" />
              <mxPoint x="1290" y="400" />
            </Array>
          </mxGeometry>
        </mxCell>
        <mxCell id="hIoY1X2tBjPMkqKbFY_H-11" value="Cierre de la iteración" style="rounded=0;whiteSpace=wrap;html=1;" parent="1" vertex="1">
          <mxGeometry x="1430" y="340" width="80" height="30" as="geometry" />
        </mxCell>
        <mxCell id="hIoY1X2tBjPMkqKbFY_H-12" value="Seguimiento de la iteración" style="rounded=0;whiteSpace=wrap;html=1;" parent="1" vertex="1">
          <mxGeometry x="1340.5" y="310" width="80" height="30" as="geometry" />
        </mxCell>
        <mxCell id="hIoY1X2tBjPMkqKbFY_H-13" value="Desarrollo de características" style="rounded=0;whiteSpace=wrap;html=1;" parent="1" vertex="1">
          <mxGeometry x="1340.5" y="350" width="80" height="30" as="geometry" />
        </mxCell>
        <mxCell id="hIoY1X2tBjPMkqKbFY_H-18" style="edgeStyle=orthogonalEdgeStyle;rounded=0;orthogonalLoop=1;jettySize=auto;html=1;exitX=1.001;exitY=0.185;exitDx=0;exitDy=0;entryX=0.5;entryY=0;entryDx=0;entryDy=0;exitPerimeter=0;" parent="1" source="hIoY1X2tBjPMkqKbFY_H-15" target="hIoY1X2tBjPMkqKbFY_H-11" edge="1">
          <mxGeometry relative="1" as="geometry">
            <Array as="points">
              <mxPoint x="1470" y="320" />
            </Array>
          </mxGeometry>
        </mxCell>
        <mxCell id="hIoY1X2tBjPMkqKbFY_H-15" value="" style="rounded=0;whiteSpace=wrap;html=1;fillColor=none;dashed=1;" parent="1" vertex="1">
          <mxGeometry x="1334" y="305" width="93" height="81" as="geometry" />
        </mxCell>
        <mxCell id="hIoY1X2tBjPMkqKbFY_H-20" value="" style="rounded=0;whiteSpace=wrap;html=1;" parent="1" vertex="1">
          <mxGeometry x="1241" y="420" width="279" height="110" as="geometry" />
        </mxCell>
        <mxCell id="hIoY1X2tBjPMkqKbFY_H-30" style="edgeStyle=orthogonalEdgeStyle;rounded=0;orthogonalLoop=1;jettySize=auto;html=1;" parent="1" source="hIoY1X2tBjPMkqKbFY_H-22" target="hIoY1X2tBjPMkqKbFY_H-29" edge="1">
          <mxGeometry relative="1" as="geometry" />
        </mxCell>
        <mxCell id="hIoY1X2tBjPMkqKbFY_H-22" value="Distribución de Versión Beta" style="rounded=0;whiteSpace=wrap;html=1;" parent="1" vertex="1">
          <mxGeometry x="1270.74" y="455.5" width="90" height="30" as="geometry" />
        </mxCell>
        <mxCell id="hIoY1X2tBjPMkqKbFY_H-23" value="&lt;b&gt;Fase 4:&lt;br&gt;Beta&lt;br&gt;&lt;/b&gt;" style="text;html=1;strokeColor=none;fillColor=none;align=left;verticalAlign=middle;whiteSpace=wrap;rounded=0;" parent="1" vertex="1">
          <mxGeometry x="1160" y="455" width="80" height="30" as="geometry" />
        </mxCell>
        <mxCell id="hIoY1X2tBjPMkqKbFY_H-26" value="Seguimiento de la iteración" style="rounded=0;whiteSpace=wrap;html=1;" parent="1" vertex="1">
          <mxGeometry x="1391.24" y="435" width="80" height="30" as="geometry" />
        </mxCell>
        <mxCell id="hIoY1X2tBjPMkqKbFY_H-27" value="Desarrollo de características" style="rounded=0;whiteSpace=wrap;html=1;" parent="1" vertex="1">
          <mxGeometry x="1391.24" y="475" width="80" height="30" as="geometry" />
        </mxCell>
        <mxCell id="hIoY1X2tBjPMkqKbFY_H-31" style="edgeStyle=orthogonalEdgeStyle;rounded=0;orthogonalLoop=1;jettySize=auto;html=1;entryX=0.5;entryY=1;entryDx=0;entryDy=0;" parent="1" source="hIoY1X2tBjPMkqKbFY_H-29" target="hIoY1X2tBjPMkqKbFY_H-22" edge="1">
          <mxGeometry relative="1" as="geometry">
            <Array as="points">
              <mxPoint x="1490.24" y="470.5" />
              <mxPoint x="1490.24" y="520.5" />
              <mxPoint x="1316.24" y="520.5" />
            </Array>
          </mxGeometry>
        </mxCell>
        <mxCell id="hIoY1X2tBjPMkqKbFY_H-29" value="" style="rounded=0;whiteSpace=wrap;html=1;fillColor=none;dashed=1;" parent="1" vertex="1">
          <mxGeometry x="1384.74" y="430" width="93" height="81" as="geometry" />
        </mxCell>
        <mxCell id="hIoY1X2tBjPMkqKbFY_H-34" value="" style="rounded=0;whiteSpace=wrap;html=1;" parent="1" vertex="1">
          <mxGeometry x="1241" y="540" width="279" height="60" as="geometry" />
        </mxCell>
        <mxCell id="hIoY1X2tBjPMkqKbFY_H-40" value="" style="edgeStyle=orthogonalEdgeStyle;rounded=0;orthogonalLoop=1;jettySize=auto;html=1;" parent="1" source="hIoY1X2tBjPMkqKbFY_H-36" target="hIoY1X2tBjPMkqKbFY_H-39" edge="1">
          <mxGeometry relative="1" as="geometry" />
        </mxCell>
        <mxCell id="hIoY1X2tBjPMkqKbFY_H-41" style="edgeStyle=orthogonalEdgeStyle;rounded=0;orthogonalLoop=1;jettySize=auto;html=1;entryX=0;entryY=0.5;entryDx=0;entryDy=0;" parent="1" source="hIoY1X2tBjPMkqKbFY_H-36" target="hIoY1X2tBjPMkqKbFY_H-39" edge="1">
          <mxGeometry relative="1" as="geometry" />
        </mxCell>
        <mxCell id="hIoY1X2tBjPMkqKbFY_H-36" value="Liberación del videojuego" style="rounded=0;whiteSpace=wrap;html=1;" parent="1" vertex="1">
          <mxGeometry x="1260" y="555" width="104.5" height="30" as="geometry" />
        </mxCell>
        <mxCell id="hIoY1X2tBjPMkqKbFY_H-37" value="&lt;b&gt;Fase 5:&lt;br&gt;Cierre&lt;br&gt;&lt;/b&gt;" style="text;html=1;strokeColor=none;fillColor=none;align=left;verticalAlign=middle;whiteSpace=wrap;rounded=0;" parent="1" vertex="1">
          <mxGeometry x="1160" y="550" width="80" height="30" as="geometry" />
        </mxCell>
        <mxCell id="hIoY1X2tBjPMkqKbFY_H-39" value="Evaluación del proyecto" style="rounded=0;whiteSpace=wrap;html=1;" parent="1" vertex="1">
          <mxGeometry x="1400" y="555" width="104.5" height="30" as="geometry" />
        </mxCell>
        <mxCell id="hIoY1X2tBjPMkqKbFY_H-42" value="Gestión de Riesgos" style="rounded=0;whiteSpace=wrap;html=1;fillColor=none;horizontal=0;verticalAlign=middle;textDirection=rtl;direction=east;flipH=1;flipV=1;" parent="1" vertex="1">
          <mxGeometry x="1540" y="160" width="20" height="440" as="geometry" />
        </mxCell>
        <mxCell id="hIoY1X2tBjPMkqKbFY_H-47" style="edgeStyle=orthogonalEdgeStyle;rounded=0;orthogonalLoop=1;jettySize=auto;html=1;entryX=0;entryY=0.5;entryDx=0;entryDy=0;endArrow=none;endFill=0;" parent="1" source="hIoY1X2tBjPMkqKbFY_H-43" target="hIoY1X2tBjPMkqKbFY_H-44" edge="1">
          <mxGeometry relative="1" as="geometry" />
        </mxCell>
        <mxCell id="hIoY1X2tBjPMkqKbFY_H-48" style="edgeStyle=orthogonalEdgeStyle;rounded=0;orthogonalLoop=1;jettySize=auto;html=1;exitX=1;exitY=0.5;exitDx=0;exitDy=0;endArrow=none;endFill=0;" parent="1" source="hIoY1X2tBjPMkqKbFY_H-43" target="hIoY1X2tBjPMkqKbFY_H-45" edge="1">
          <mxGeometry relative="1" as="geometry" />
        </mxCell>
        <mxCell id="hIoY1X2tBjPMkqKbFY_H-49" style="edgeStyle=orthogonalEdgeStyle;rounded=0;orthogonalLoop=1;jettySize=auto;html=1;exitX=1;exitY=0.5;exitDx=0;exitDy=0;entryX=0;entryY=0.5;entryDx=0;entryDy=0;endArrow=none;endFill=0;" parent="1" source="hIoY1X2tBjPMkqKbFY_H-43" target="hIoY1X2tBjPMkqKbFY_H-46" edge="1">
          <mxGeometry relative="1" as="geometry" />
        </mxCell>
        <mxCell id="hIoY1X2tBjPMkqKbFY_H-43" value="Menú principal" style="rounded=1;whiteSpace=wrap;html=1;fillColor=none;" parent="1" vertex="1">
          <mxGeometry x="200" y="690" width="120" height="60" as="geometry" />
        </mxCell>
        <mxCell id="hIoY1X2tBjPMkqKbFY_H-52" style="edgeStyle=orthogonalEdgeStyle;rounded=0;orthogonalLoop=1;jettySize=auto;html=1;exitX=1;exitY=0.5;exitDx=0;exitDy=0;entryX=0;entryY=0.5;entryDx=0;entryDy=0;endArrow=none;endFill=0;" parent="1" source="hIoY1X2tBjPMkqKbFY_H-44" target="hIoY1X2tBjPMkqKbFY_H-51" edge="1">
          <mxGeometry relative="1" as="geometry" />
        </mxCell>
        <mxCell id="hIoY1X2tBjPMkqKbFY_H-44" value="Pantalla de canciones" style="rounded=1;whiteSpace=wrap;html=1;fillColor=none;" parent="1" vertex="1">
          <mxGeometry x="360" y="610" width="120" height="60" as="geometry" />
        </mxCell>
        <mxCell id="hIoY1X2tBjPMkqKbFY_H-45" value="Configuración del volumen" style="rounded=1;whiteSpace=wrap;html=1;fillColor=none;" parent="1" vertex="1">
          <mxGeometry x="360" y="690" width="120" height="60" as="geometry" />
        </mxCell>
        <mxCell id="hIoY1X2tBjPMkqKbFY_H-46" value="Instrucciones (Parte 1)" style="rounded=1;whiteSpace=wrap;html=1;fillColor=none;" parent="1" vertex="1">
          <mxGeometry x="360" y="770" width="120" height="60" as="geometry" />
        </mxCell>
        <mxCell id="hIoY1X2tBjPMkqKbFY_H-50" value="Instrucciones (Parte 2)" style="rounded=1;whiteSpace=wrap;html=1;fillColor=none;" parent="1" vertex="1">
          <mxGeometry x="510" y="770" width="120" height="60" as="geometry" />
        </mxCell>
        <mxCell id="hIoY1X2tBjPMkqKbFY_H-54" style="edgeStyle=orthogonalEdgeStyle;rounded=0;orthogonalLoop=1;jettySize=auto;html=1;exitX=1;exitY=0.5;exitDx=0;exitDy=0;entryX=0;entryY=0.5;entryDx=0;entryDy=0;endArrow=none;endFill=0;" parent="1" source="hIoY1X2tBjPMkqKbFY_H-51" target="hIoY1X2tBjPMkqKbFY_H-53" edge="1">
          <mxGeometry relative="1" as="geometry" />
        </mxCell>
        <mxCell id="hIoY1X2tBjPMkqKbFY_H-51" value="Pantalla baile del personaje" style="rounded=1;whiteSpace=wrap;html=1;fillColor=none;" parent="1" vertex="1">
          <mxGeometry x="520" y="610" width="120" height="60" as="geometry" />
        </mxCell>
        <mxCell id="hIoY1X2tBjPMkqKbFY_H-55" style="edgeStyle=orthogonalEdgeStyle;rounded=0;orthogonalLoop=1;jettySize=auto;html=1;exitX=0.5;exitY=0;exitDx=0;exitDy=0;entryX=0.5;entryY=0;entryDx=0;entryDy=0;endArrow=none;endFill=0;" parent="1" source="hIoY1X2tBjPMkqKbFY_H-53" target="hIoY1X2tBjPMkqKbFY_H-44" edge="1">
          <mxGeometry relative="1" as="geometry" />
        </mxCell>
        <mxCell id="hIoY1X2tBjPMkqKbFY_H-53" value="Pantalla de puntuación obtenida" style="rounded=1;whiteSpace=wrap;html=1;fillColor=none;" parent="1" vertex="1">
          <mxGeometry x="680" y="610" width="120" height="60" as="geometry" />
        </mxCell>
      </root>
    </mxGraphModel>
  </diagram>
</mxfile>
